<?xml version="1.0" encoding="utf-8"?>
<!-- Generator: Adobe Illustrator 17.1.0, SVG Export Plug-In . SVG Version: 6.00 Build 0)  -->
<!DOCTYPE svg PUBLIC "-//W3C//DTD SVG 1.1//EN" "http://www.w3.org/Graphics/SVG/1.1/DTD/svg11.dtd">
<svg version="1.1" id="Layer_1" xmlns="http://www.w3.org/2000/svg" xmlns:xlink="http://www.w3.org/1999/xlink" x="0px" y="0px"
	 viewBox="0 128 400 163.8" enable-background="new 0 128 400 163.8" xml:space="preserve">
<g>
	<path fill="#8973B4" d="M1.8,278v13.8h1.9v-5.6h1.4c3.3,0,5-1.5,5-4.1c0-2.7-1.6-4.1-4.9-4.1L1.8,278L1.8,278z M3.7,279.5h1.5
		c1.8,0,2.9,0.9,2.9,2.5c0,1.7-1.1,2.6-3.2,2.6H3.7V279.5L3.7,279.5z"/>
	<path fill="#8973B4" d="M13.9,284.1h1.5c2,0,3.1-0.9,3.1-2.4c0-1.6-1-2.3-3.2-2.3h-1.4L13.9,284.1L13.9,284.1z M15.7,278
		c3.2,0,4.7,1.2,4.7,3.5c0,1.7-1,3-3,3.3c1,0.3,1.4,0.9,1.8,2l2.1,5h-2.1l-1.8-4.5c-0.5-1.2-1.2-1.6-2.5-1.6h-1.1v6.1H12V278H15.7
		L15.7,278z"/>
	<polygon fill="#8973B4" points="30.5,278 30.5,279.4 25,279.4 25,283.8 30.2,283.8 30.2,285.4 25,285.4 25,290.1 30.7,290.1 
		30.7,291.7 23.1,291.7 23.1,278 	"/>
	<polygon fill="#8973B4" points="34,278 38,289.9 42.2,278 44.2,278 39.1,291.7 36.8,291.7 31.9,278 	"/>
	<polygon fill="#8973B4" points="53.1,278 53.1,279.4 47.6,279.4 47.6,283.8 52.8,283.8 52.8,285.4 47.6,285.4 47.6,290.1 
		53.3,290.1 53.3,291.7 45.7,291.7 45.7,278 	"/>
	<path fill="#8973B4" d="M58.4,278l6,10.7c0.2,0.3,0.4,0.9,0.7,1.8c-0.2-1.1-0.3-1.8-0.3-2.4V278h1.8v13.8h-2.4L58.1,281
		c-0.1-0.2-0.4-0.9-0.6-1.8c0.2,1.3,0.3,2.2,0.3,2.6v10.1H56V278H58.4L58.4,278z"/>
	<polygon fill="#8973B4" points="77.8,278 77.8,279.6 74,279.6 74,291.7 72,291.7 72,279.6 68.2,279.6 68.2,278 	"/>
	<polygon fill="#8973B4" points="81.4,278 81.4,291.7 79.4,291.7 79.4,278 	"/>
	<path fill="#8973B4" d="M90.1,277.7c-3.8,0-6.3,2.7-6.3,7.1c0,4.5,2.4,7.2,6.3,7.2s6.2-2.7,6.2-7.2
		C96.3,280.4,93.9,277.7,90.1,277.7L90.1,277.7z M90.1,279.2c2.5,0,4.3,2.2,4.3,5.6c0,3.5-1.7,5.6-4.3,5.6c-2.5,0-4.3-2.1-4.3-5.6
		C85.8,281.4,87.5,279.2,90.1,279.2L90.1,279.2z"/>
	<path fill="#8973B4" d="M101.2,278l6,10.7c0.2,0.3,0.4,0.9,0.7,1.8c-0.2-1.1-0.2-1.8-0.2-2.4V278h1.8v13.8H107l-6.1-10.8
		c-0.2-0.2-0.4-0.9-0.7-1.8c0.2,1.3,0.3,2.2,0.3,2.6v10.1h-1.8V278H101.2L101.2,278z"/>
	<path fill="#8973B4" d="M124.3,286c0.1-0.5,0.2-1,0.2-1.4c0-1.9-1.2-3-3.3-3c-0.8,0-1.7,0.2-2.9,0.5l-0.1,1.3
		c1.2-0.5,2.2-0.7,3-0.7c1.4,0,2.2,0.7,2.2,2.1c0,0.2,0,0.6-0.1,1c-0.7-0.1-1.3-0.1-1.7-0.1c-3.5,0-5.4,1.3-5.4,3.6
		c0,1.6,1.2,2.7,3,2.7c1.3,0,2.3-0.5,3.3-1.7l-0.2,1.6h1.1c0.1-0.7,0.2-1.6,0.5-2.7L124.3,286L124.3,286z M123,286.6
		c-0.4,2.8-1.7,4.2-3.7,4.2c-1.2,0-1.9-0.7-1.9-1.8c0-1.8,1.5-2.5,4.6-2.5C122.3,286.6,122.6,286.6,123,286.6L123,286.6z"/>
	<path fill="#8973B4" d="M133.8,291.7h-1.3l1.2-5.6c0.1-0.5,0.1-0.9,0.1-1.3c0-1.3-0.7-2.1-2.1-2.1c-1.6,0-3,1.4-3.5,3.9l-1.1,5.1
		h-1.3l2.1-10h1.2l-0.4,1.8c0.9-1.3,2-1.9,3.4-1.9c1.8,0,3,1.2,3,3c0,0.5-0.1,1.1-0.2,1.7L133.8,291.7L133.8,291.7z"/>
	<path fill="#8973B4" d="M146.3,276.9l-1.4,6.9c-0.5-1.5-1.6-2.2-3.3-2.2c-1.5,0-2.9,0.8-3.8,2.3c-0.7,1.2-1.1,2.6-1.1,4
		c0,2.5,1.4,4,3.5,4c1.3,0,2.5-0.6,3.4-1.9l-0.3,1.7h1.1l3.1-14.8H146.3L146.3,276.9z M144.3,285.8c0,1.2-0.3,2.4-0.9,3.3
		c-0.8,1.2-1.8,1.9-2.9,1.9c-1.5,0-2.4-1.1-2.4-2.9s0.6-3.4,1.6-4.4c0.6-0.6,1.3-0.9,2.1-0.9C143.3,282.7,144.3,283.9,144.3,285.8
		L144.3,285.8z"/>
	<polygon fill="#8973B4" points="162.1,278 162.1,279.6 158.2,279.6 158.2,291.7 156.3,291.7 156.3,279.6 152.4,279.6 152.4,278 	
		"/>
	<path fill="#8973B4" d="M163.7,278v13.8h1.9v-6.1h1.1c1.3,0,1.9,0.4,2.4,1.6l1.8,4.5h2.1l-2.1-5c-0.4-1-0.8-1.7-1.8-2
		c2-0.4,3-1.6,3-3.3c0-2.4-1.6-3.5-4.7-3.5H163.7L163.7,278z M165.6,279.4h1.4c2.1,0,3.2,0.7,3.2,2.3c0,1.4-1.1,2.4-3.1,2.4h-1.5
		L165.6,279.4L165.6,279.4z"/>
	<polygon fill="#8973B4" points="182.2,278 182.2,279.4 176.7,279.4 176.7,283.8 181.9,283.8 181.9,285.4 176.7,285.4 176.7,290.1 
		182.4,290.1 182.4,291.7 174.7,291.7 174.7,278 	"/>
	<path fill="#8973B4" d="M188.9,278l-5.5,13.8h1.9l1.3-3.5h6.6l1.3,3.5h2.1l-5.4-13.8H188.9L188.9,278z M190.1,279.6l2.7,7h-5.4
		L190.1,279.6L190.1,279.6z"/>
	<polygon fill="#8973B4" points="205.3,278 205.3,279.6 201.4,279.6 201.4,291.7 199.5,291.7 199.5,279.6 195.6,279.6 195.6,278 	
		"/>
	<path fill="#8973B4" d="M209.8,278l4.1,10.7c0.2,0.5,0.3,1.1,0.3,1.7c0.1-0.9,0.2-1.5,0.3-1.8l4.2-10.7h2.9v13.8h-1.9v-10.8
		c0-0.7,0.1-1.4,0.2-2.1c-0.2,0.8-0.4,1.4-0.6,1.9l-4.4,11.1h-1.7l-4.4-11.3c-0.1-0.3-0.3-0.9-0.4-1.7c0.1,1.2,0.1,2,0.1,2.2v10.8
		h-1.7V278H209.8L209.8,278z"/>
	<polygon fill="#8973B4" points="232.2,278 232.2,279.4 226.7,279.4 226.7,283.8 231.9,283.8 231.9,285.4 226.7,285.4 226.7,290.1 
		232.4,290.1 232.4,291.7 224.8,291.7 224.8,278 	"/>
	<path fill="#8973B4" d="M237.5,278l6,10.7c0.2,0.3,0.4,0.9,0.7,1.8c-0.2-1.1-0.3-1.8-0.3-2.4V278h1.8v13.8h-2.3l-6.1-10.8
		c-0.1-0.2-0.4-0.9-0.7-1.8c0.2,1.3,0.3,2.2,0.3,2.6v10.1h-1.8V278H237.5L237.5,278z"/>
	<polygon fill="#8973B4" points="257,278 257,279.6 253.1,279.6 253.1,291.7 251.2,291.7 251.2,279.6 247.3,279.6 247.3,278 	"/>
	<path fill="#8973B4" d="M267.9,281.6c-1.5,0-2.9,0.7-3.8,1.7c-1.1,1.3-1.6,2.8-1.6,4.4c0,2.6,1.6,4.2,4,4.2c2,0,3.6-1.1,4.7-3
		c0.5-0.9,0.8-2,0.8-3.2C272,283.2,270.4,281.6,267.9,281.6L267.9,281.6z M270.6,285.9c0,1.5-0.6,2.9-1.5,3.9
		c-0.7,0.7-1.5,1.1-2.4,1.1c-1.7,0-2.8-1.3-2.8-3.3c0-1.6,0.6-3,1.7-4c0.7-0.6,1.5-1,2.3-1C269.5,282.7,270.6,283.9,270.6,285.9
		L270.6,285.9z"/>
	<path fill="#8973B4" d="M281,276.9c-0.4-0.1-0.9-0.2-1.3-0.2c-1.7,0-2.8,1.1-3.3,3.1l-0.4,2h-2.1l-0.2,1h2.1l-1.9,8.9h1.3l1.9-8.9
		h2.5l0.2-1h-2.5l0.3-1.5c0.4-1.7,0.9-2.4,2-2.4c0.3,0,0.6,0,1.1,0.1L281,276.9L281,276.9z"/>
	<path fill="#8973B4" d="M295.9,280.1c-0.9-0.4-1.9-0.7-3.1-0.7c-3.3,0-5.4,2.1-5.4,5.4s2.1,5.3,5.4,5.3c1.1,0,2.1-0.2,3.1-0.6v1.7
		c-1,0.3-2,0.5-3.3,0.5c-4.5,0-7.3-2.7-7.3-6.9c0-4.3,2.9-7,7.4-7c1.3,0,2.3,0.2,3.2,0.5L295.9,280.1L295.9,280.1z"/>
	<polygon fill="#8973B4" points="299.8,278 299.8,283.8 306.1,283.8 306.1,278 308,278 308,291.7 306.1,291.7 306.1,285.4 
		299.8,285.4 299.8,291.7 297.9,291.7 297.9,278 	"/>
	<polygon fill="#8973B4" points="313.1,278 313.1,291.7 311.1,291.7 311.1,278 	"/>
	<polygon fill="#8973B4" points="318.1,278 318.1,290.1 323.6,290.1 323.6,291.7 316.2,291.7 316.2,278 	"/>
	<path fill="#8973B4" d="M325.1,278v13.8h3.2c5.1,0,7.8-2.5,7.8-6.9c0-4.6-2.6-6.9-7.8-6.9H325.1L325.1,278z M327.1,279.5h1.6
		c3.6,0,5.4,1.8,5.4,5.3c0,3.4-2,5.3-5.5,5.3H327v-10.6H327.1z"/>
	<path fill="#8973B4" d="M347.8,278l-5.5,13.8h1.9l1.3-3.5h6.6l1.3,3.5h2.1l-5.4-13.8H347.8L347.8,278z M348.9,279.6l2.7,7h-5.4
		L348.9,279.6L348.9,279.6z"/>
	<path fill="#8973B4" d="M358.6,279.5h1.6c1.9,0,2.9,0.8,2.9,2.2c0,1.4-1,2.2-3.1,2.2h-1.4V279.5L358.6,279.5z M356.7,278v13.8h3.7
		c3.3,0,5.1-1.4,5.1-3.9c0-1.7-1-2.9-3-3.4c1.7-0.5,2.5-1.5,2.5-3.1c0-2.2-1.6-3.5-4.7-3.5h-3.6V278z M358.6,285.3h1.7
		c2.1,0,3.1,0.8,3.1,2.4s-1.1,2.4-3.4,2.4h-1.5L358.6,285.3L358.6,285.3z"/>
	<path fill="#8973B4" d="M369.7,278v8.1c0,2.9,1,4.3,3.3,4.3c2.2,0,3.4-1.5,3.4-4.5v-8h1.8v8c0,4-1.7,6-5.2,6c-3.4,0-5.1-2-5.1-5.9
		v-8H369.7L369.7,278z"/>
	<path fill="#8973B4" d="M388.2,280c-0.9-0.4-1.8-0.6-2.7-0.6c-1.7,0-2.7,0.7-2.7,1.8c0,1.1,0.9,1.7,2.5,2.5
		c2.3,1.3,3.6,2.4,3.6,4.2c0,2.3-1.9,4-4.6,4c-1.3,0-2.5-0.2-3.5-0.6l0.2-1.8c1.1,0.6,2.2,0.9,3.2,0.9c1.7,0,2.7-0.8,2.7-2
		c0-1.6-1.4-2.2-3.6-3.5c-1.5-0.9-2.4-2.2-2.4-3.5c0-2.1,1.7-3.5,4.6-3.5c1.1,0,2,0.1,2.9,0.5L388.2,280L388.2,280z"/>
	<polygon fill="#8973B4" points="398.9,278 398.9,279.4 393.3,279.4 393.3,283.8 398.6,283.8 398.6,285.4 393.3,285.4 393.3,290.1 
		399.1,290.1 399.1,291.7 391.4,291.7 391.4,278 	"/>
	<g>
		<polygon fill="#8973B4" points="1.4,273.4 4.1,273.4 4.2,268.9 8.1,268.9 8.2,266.5 4.2,266.5 4.3,264.5 8.3,264.5 8.3,262 
			1.5,262 		"/>
		<path fill="#8973B4" d="M12.7,264.8c-2.6,0-4.3,1.7-4.3,4.5c0,2.6,1.6,4.3,4.2,4.3c2.6,0,4.3-1.8,4.3-4.5
			C16.8,266.5,15.2,264.8,12.7,264.8z M14.2,269.1c0,1.5-0.7,2.4-1.6,2.4c-0.9,0-1.5-0.9-1.5-2.3c0-0.8,0.1-1.5,0.5-1.9
			c0.3-0.3,0.7-0.4,1.1-0.4C13.6,266.9,14.2,267.8,14.2,269.1z"/>
		<path fill="#8973B4" d="M22.5,270.6c-0.6,0.5-1,0.8-1.5,0.8c-0.4,0-0.7-0.1-0.7-1.1l0.1-5.2h-2.3v0.3l-0.4,0l-0.1,5.4v0.1
			c0,1.7,0.9,2.8,2.5,2.8c0.8,0,1.6-0.3,2.4-0.9v0.7h2.5l0.1-8.3h-2.5L22.5,270.6z"/>
		<path fill="#8973B4" d="M31.7,264.9c-0.8,0-1.6,0.3-2.4,0.9v-0.7h-2.5l-0.1,8.3h2.6l0.1-5.5c0.6-0.5,1-0.8,1.5-0.8
			c0.2,0,0.7,0,0.7,1.1l-0.1,5.1h2.6l0.1-5.6v-0.1C34.2,265.4,32.8,264.9,31.7,264.9z"/>
		<path fill="#8973B4" d="M40.5,265.3c-0.5-0.3-1.1-0.5-1.7-0.5c-2,0-3.7,2-3.7,4.5c0,2.5,1.4,4.2,3.5,4.2c0.7,0,1.4-0.2,1.9-0.7
			v0.5h2.5l0.2-12.2h-2.7L40.5,265.3z M39.4,267c0.2,0.1,0.8,0.2,1.2,0.7v2.8c-0.4,0.6-0.8,0.8-1.3,0.8c-0.9,0-1.4-0.8-1.4-2
			C37.8,268,38.5,267,39.4,267z"/>
		<path fill="#8973B4" d="M48.1,264.8c-2.3,0-4.1,1.9-4.1,4.5c0,2.7,1.5,4.4,4,4.4c1.2,0,2.3-0.4,3.3-1.3l0.3-0.2l-1.1-1.7l-0.3,0.3
			c-0.6,0.5-1.3,0.8-1.9,0.8c-0.9,0-1.5-0.6-1.6-1.8h5V269C51.7,266.3,50.4,264.8,48.1,264.8z M49.1,267.8h-2.3c0.2-0.7,0.7-1,1.3-1
			C48.7,266.8,49,267.2,49.1,267.8z"/>
		<path fill="#8973B4" d="M57.5,265.3c-0.5-0.3-1.1-0.5-1.7-0.5c-2.1,0-3.7,1.9-3.7,4.5c0,2.5,1.4,4.2,3.5,4.2
			c0.7,0,1.4-0.2,1.9-0.7v0.5h2.5l0.2-12.2h-2.7L57.5,265.3z M56.4,267c0.5,0.1,0.9,0.3,1.2,0.7v2.8c-0.4,0.6-0.8,0.8-1.3,0.8
			c-0.9,0-1.4-0.8-1.4-2C54.8,268,55.5,267,56.4,267z"/>
		<polygon fill="#8973B4" points="65.7,273.4 68.4,273.4 68.6,265 65.8,265 		"/>
		<rect x="65.9" y="261.9" fill="#8973B4" width="2.7" height="2.5"/>
		<path fill="#8973B4" d="M74.9,264.9c-0.8,0-1.7,0.3-2.4,0.9v-0.7h-2.5l-0.1,8.3h2.6l0.1-5.5c0.6-0.5,1-0.8,1.5-0.8
			c0.4,0,0.7,0.1,0.7,1.1l-0.1,5.1h2.6l0.1-5.6v-0.1C77.4,265.4,76,264.9,74.9,264.9z"/>
		<polygon fill="#8973B4" points="83.2,265.5 84.7,267.2 86.7,265.4 86.5,273.4 89.2,273.4 89.3,262 87.3,262 		"/>
		<path fill="#8973B4" d="M95.8,261.8c-2.4,0-4.2,1.7-4.2,4c0,1.9,1.6,3.5,3.5,3.5c0.8,0,1.5-0.3,2.1-0.8c-0.5,1.8-1.8,2.7-3.8,2.7
			c-0.3,0-0.4,0-0.7-0.1l-0.4-0.1l-0.5,2.3l0.4,0.1c0.5,0.1,1.1,0.1,1.5,0.1c1.9,0,3.5-0.6,4.5-1.7c1.3-1.3,2-3,2-4.8
			C100.2,264,98.4,261.8,95.8,261.8z M97.3,266.2c-0.4,0.6-1,0.8-1.6,0.8c-0.8,0-1.3-0.5-1.3-1.3c0-0.9,0.6-1.5,1.4-1.5
			C96.5,264.3,97.3,264.9,97.3,266.2z"/>
		<path fill="#8973B4" d="M105.3,265.5c-0.5,0-1,0.1-1.5,0.3l0.4-1.5h4.4v-2.2h-6.4l-1.2,6.1l1.7,0.6l0.2-0.3
			c0.3-0.6,0.9-0.9,1.8-0.9c1,0,1.7,0.6,1.7,1.5c0,1.2-1.1,2-2.6,2c-0.6,0-1.2-0.2-1.8-0.4l-0.3-0.1l-0.8,2.1l0.4,0.1
			c1,0.3,1.9,0.5,2.7,0.5c1.4,0,2.5-0.3,3.3-1c1.1-0.9,1.7-2.1,1.7-3.4C109,267.1,107.4,265.5,105.3,265.5z"/>
		<path fill="#8973B4" d="M113.8,261.9c-2.4,0-4.2,1.7-4.2,4c0,1.9,1.6,3.5,3.5,3.5c0.8,0,1.5-0.3,2.1-0.8c-0.5,1.8-1.8,2.7-3.8,2.7
			c-0.1,0-0.2,0-0.3,0c-0.1,0-0.3-0.1-0.5-0.1h-0.3l-0.5,2.2h0.5c0.3,0,0.5,0,0.7,0.1c0.2,0,0.5,0,0.7,0c1.7,0,3.2-0.6,4.5-1.7
			c1.3-1.3,2-3,2-4.8C118.2,264.1,116.4,261.9,113.8,261.9z M113.7,264.2c0.9,0,1.6,0.8,1.6,1.9c-0.5,0.7-1,0.9-1.7,0.9
			c-0.8,0-1.3-0.5-1.3-1.3C112.3,264.8,112.9,264.2,113.7,264.2z"/>
		<path fill="#8973B4" d="M126.4,264.8c-0.7,0-1.4,0.2-1.9,0.6l0.1-4.1h-2.2v0.3l-0.4,0l-0.2,11.8h2.6v-0.4c0.5,0.4,1.1,0.5,1.7,0.5
			c2.1,0,3.8-2,3.8-4.4C129.9,266.5,128.5,264.8,126.4,264.8z M127.2,268.9c0,1.5-0.8,2.4-1.5,2.4c-0.5,0-0.9-0.3-1.2-0.7v-2.8
			c0.5-0.6,1-0.9,1.4-0.9C126.5,267,127.2,267.6,127.2,268.9z"/>
		<path fill="#8973B4" d="M134.4,268.7c0,0.2-0.1,0.4-0.2,0.7c0-0.1-0.1-0.2-0.1-0.3l-1.5-4.7l-2.6,1l2.8,7.6l-0.3,0.8
			c-0.3,0.9-0.6,1.1-1.5,1.1h-0.7v2.1h1.1c1.8,0,2.9-0.9,3.7-2.9l3.3-8.8l-2.4-0.9L134.4,268.7z"/>
		<path fill="#8973B4" d="M147.3,264.3c0.7,0,1.3,0.2,2,0.6l0.4,0.2l1-2.2l-0.3-0.2c-1.1-0.6-2.2-0.8-3.2-0.8c-2.4,0-4,1.4-4,3.4
			c0,1.7,1,2.5,2.5,3.2l0.3,0.1c1.2,0.6,1.5,0.9,1.5,1.5c0,0.6-0.5,1-1.3,1c-0.7,0-1.3-0.2-1.8-0.6l-0.4-0.3l-1,2.4l0.3,0.2
			c1,0.6,2.1,0.8,3.1,0.8c2.3,0,4-1.4,4-3.5c0-0.7-0.2-1.4-0.6-2c-0.5-0.7-1.1-1-1.7-1.3l-0.4-0.2c-1.2-0.6-1.8-0.9-1.8-1.5
			C146,264.4,146.7,264.3,147.3,264.3z"/>
		<path fill="#8973B4" d="M158.3,271.3c-0.1,0-0.1,0.1-0.2,0.1c-0.1,0.1-0.1,0.1-0.2,0.1c0,0-0.1-0.1-0.1-0.7l0-0.3l0.1-2.4v-0.3
			c0-2.1-0.8-3-2.8-3c-1.1,0-2.1,0.4-3.3,1.3l-0.3,0.2l1,1.7l0.3-0.2c0.7-0.5,1.4-0.8,2-0.8c0.3,0,0.6,0.1,0.6,0.8v0.1
			c-2.8,0.2-4.5,1.4-4.5,3.2c0,1.6,1.2,2.7,2.9,2.7c0.7,0,1.3-0.2,2-0.7c0.3,0.4,0.8,0.6,1.3,0.6c0.7,0,1.2-0.2,1.8-0.5l0.3-0.1
			l-0.5-1.7L158.3,271.3z M155.4,269.7v1.2c-0.5,0.5-0.9,0.7-1.3,0.7c-0.5,0-0.6-0.4-0.6-0.7C153.5,270.3,153.7,269.7,155.4,269.7z"
			/>
		<path fill="#8973B4" d="M164.9,264.9h-0.4c-0.1,0-0.1,0-0.2,0c-0.1,0-0.2-0.1-0.4-0.1c-0.7,0-1.3,0.4-1.7,0.8v-0.7h-2.5l-0.1,8.4
			h2.6l0.1-4.9c0.5-0.9,1-1.2,1.6-1.2h0.7L164.9,264.9z"/>
		<path fill="#8973B4" d="M171.9,271.4c-0.1,0.1-0.3,0.1-0.3,0.2c0,0-0.1-0.1-0.1-0.7l0-0.3l0.1-2.4v-0.3c0-2.1-0.8-3-2.8-3
			c-1.1,0-2.1,0.4-3.3,1.3l-0.3,0.2l1,1.7l0.3-0.2c0.7-0.5,1.4-0.8,2-0.8c0.4,0,0.6,0,0.6,0.8v0.1c-2.8,0.1-4.5,1.3-4.5,3.2
			c0,1.5,1.2,2.7,2.9,2.7c0.7,0,1.3-0.2,2-0.7c0.3,0.4,0.8,0.6,1.3,0.6c0.6,0,1.2-0.2,1.8-0.6l0.2-0.1l-0.5-1.7L171.9,271.4z
			 M169.1,269.7v1.2c-0.5,0.4-0.9,0.7-1.3,0.7c-0.5,0-0.6-0.4-0.6-0.7C167.2,270.3,167.4,269.7,169.1,269.7z"/>
		<path fill="#8973B4" d="M183.3,261.9c-3.5,0-5.9,2.4-5.9,5.9c0,1.6,0.6,3.2,1.7,4.3c1.1,1,2.4,1.5,4.2,1.5c1.7,0,3.1-0.5,4.2-1.6
			c1-1,1.7-2.7,1.7-4.3c0-1.7-0.6-3.3-1.7-4.4C186.5,262.4,185.2,261.9,183.3,261.9z M186.3,267.7c0,2.1-1.2,3.5-3,3.5
			c-1.8,0-3-1.4-3-3.4c0-2.1,1.2-3.5,3-3.5C185.2,264.3,186.3,265.6,186.3,267.7z"/>
		<rect x="189.8" y="261.9" fill="#8973B4" width="2" height="5"/>
		<path fill="#8973B4" d="M203.3,262l-0.1-0.6l-0.1,0.6h-1.2l-2.4,7.3c-0.1,0.1-0.1,0.2-0.1,0.5c-0.1-0.2-0.1-0.4-0.2-0.5l-2.1-6.9
			v-0.5h-1.3l-0.1-0.8l-0.1,0.8h-1.4l-2.1,11.2l2.7,0.4l1.1-6.9l0-0.3c0,0,0,0.1,0,0.1l2.1,7h2.7l2.3-7l0.9,7.4l2.7-0.4l-1.8-11.2
			H203.3z"/>
		<path fill="#8973B4" d="M211,264.8c-2.3,0-4.1,1.9-4.1,4.5c0,2.7,1.5,4.4,4,4.4c1.2,0,2.3-0.4,3.3-1.3l0.3-0.2l-1.1-1.7l-0.3,0.3
			c-0.6,0.5-1.3,0.8-1.9,0.8c-1,0-1.6-0.7-1.7-1.8h5.1V269C214.6,266.3,213.3,264.8,211,264.8z M211,266.8c0.6,0,0.9,0.4,1,1h-2.3
			C209.9,267.2,210.4,266.8,211,266.8z"/>
		<path fill="#8973B4" d="M222.2,271.3c-0.1,0.1-0.3,0.1-0.4,0.2c0,0-0.1-0.1-0.1-0.7l0.1-2.7v-0.3c0-1.8-0.5-3-2.8-3
			c-1.1,0-2.1,0.4-3.3,1.3l-0.3,0.2l1,1.7l0.3-0.2c0.7-0.5,1.4-0.8,2-0.8c0.3,0,0.6,0.1,0.6,0.8v0.1c-2.8,0.2-4.5,1.4-4.5,3.2
			c0,1.6,1.1,2.7,2.9,2.7c0.7,0,1.3-0.2,2-0.7c0.3,0.4,0.8,0.6,1.3,0.6c0.6,0,1.2-0.2,1.8-0.6l0.2-0.2l-0.5-1.7L222.2,271.3z
			 M219.4,269.7v1.2c-0.5,0.5-0.9,0.7-1.3,0.7c-0.5,0-0.6-0.4-0.6-0.7C217.5,270.2,217.6,269.7,219.4,269.7z"/>
		<path fill="#8973B4" d="M228.5,265.2c-0.3-0.1-0.5-0.1-0.8-0.1c-0.7,0-1.2,0.2-1.7,0.8v-0.7h-2.5l-0.1,8.3h2.6l0.1-4.9
			c0.5-0.9,1-1.2,1.6-1.2h0.7l0.3-2.1L228.5,265.2z"/>
		<path fill="#8973B4" d="M235.9,271.3c-0.1,0-0.1,0.1-0.2,0.1c-0.1,0.1-0.1,0.1-0.2,0.1c0,0-0.1-0.1-0.1-0.7l0.1-2.7v-0.3
			c0-2.1-0.8-3-2.8-3c-1.1,0-2.1,0.4-3.3,1.3l-0.3,0.2l1,1.7l0.3-0.2c0.7-0.5,1.4-0.8,2-0.8c0.3,0,0.6,0.1,0.6,0.8v0.1
			c-2.8,0.2-4.5,1.4-4.5,3.2c0,1.6,1.2,2.7,2.9,2.7c0.7,0,1.3-0.2,2-0.7c0.3,0.4,0.8,0.6,1.3,0.6c0.6,0,1.2-0.2,1.8-0.6l0.2-0.2
			l-0.5-1.7L235.9,271.3z M233.1,269.7v1.2c-0.5,0.5-0.9,0.7-1.3,0.7c-0.5,0-0.6-0.4-0.6-0.7C231.2,270.2,231.3,269.7,233.1,269.7z"
			/>
		<path fill="#8973B4" d="M248.4,271.4c-0.1,0.1-0.3,0.1-0.3,0.2c0,0-0.1-0.1-0.1-0.7l0.1-2.7v-0.3c0-1.9-0.5-3-2.8-3
			c-1.1,0-2.1,0.4-3.3,1.3l-0.3,0.2l1,1.7l0.3-0.2c0.7-0.5,1.4-0.8,2-0.8c0.4,0,0.6,0,0.6,0.8v0.1c-2.8,0.1-4.5,1.3-4.5,3.2
			c0,1.5,1.2,2.7,2.9,2.7c0.7,0,1.3-0.2,2-0.7c0.3,0.4,0.8,0.6,1.3,0.6c0.6,0,1.2-0.2,1.8-0.6l0.3-0.1l-0.5-1.7L248.4,271.4z
			 M245.6,269.7v1.2c-0.5,0.4-0.9,0.7-1.3,0.7c-0.5,0-0.6-0.4-0.6-0.7C243.7,270.3,243.9,269.7,245.6,269.7z"/>
		<path fill="#8973B4" d="M254.8,264.8c-0.8,0-1.7,0.3-2.4,0.9V265h-2.5l-0.1,8.3h2.6l0.2-5.4c0.8-0.7,1.4-0.8,1.5-0.8
			c0.4,0,0.7,0.1,0.7,1.1l-0.1,5.1h2.6v-5.8C257.3,265.3,255.9,264.8,254.8,264.8z"/>
		<path fill="#8973B4" d="M263.6,265.3c-0.5-0.3-1.1-0.5-1.7-0.5c-2.1,0-3.7,1.9-3.7,4.5c0,2.5,1.4,4.2,3.5,4.2
			c0.7,0,1.4-0.2,1.9-0.7v0.5h2.5l0.2-12.2h-2.7L263.6,265.3z M262.5,267c0.3,0.1,0.9,0.2,1.2,0.7v2.8c-0.4,0.6-0.8,0.8-1.3,0.8
			c-0.9,0-1.4-0.8-1.4-2C260.9,268,261.6,267,262.5,267z"/>
		<path fill="#8973B4" d="M279.1,261.7l-2.4,4.1c-0.1,0.2-0.2,0.4-0.3,0.6c0,0,0,0,0,0c-0.1-0.2-0.2-0.4-0.3-0.6
			c0-0.1-0.1-0.2-0.1-0.2l-2.3-3.9l-2.3,1.3l3.5,5.6l-0.1,4.8h2.8l0.1-4.8l3.7-5.5L279.1,261.7z"/>
		<path fill="#8973B4" d="M285.4,269.4c-0.1,0.2-0.2,0.3-0.2,0.5c-0.1-0.2-0.1-0.4-0.2-0.6l-1.3-4.8l-2.5,0.8l2.8,8h1.1l0.1,0.6
			l0.1-0.6h1.3l3-8l-2.4-0.7L285.4,269.4z"/>
		<path fill="#8973B4" d="M293.8,264.8c-2.6,0-4.3,1.8-4.3,4.5c0,2.6,1.6,4.3,4.2,4.3c2.6,0,4.4-1.8,4.4-4.5
			C298,266.5,296.3,264.8,293.8,264.8z M295.3,269.1c0,1.5-0.6,2.4-1.6,2.4c-0.9,0-1.5-0.9-1.5-2.3c0-0.8,0.1-1.4,0.5-1.8
			c0.3-0.3,0.7-0.5,1.1-0.5C294.7,266.9,295.3,267.8,295.3,269.1z"/>
		<path fill="#8973B4" d="M303.9,264.8c-0.8,0-1.7,0.3-2.4,0.9V265h-2.5l-0.1,8.3h2.6l0.1-5.5c0.6-0.5,1-0.8,1.5-0.8
			c0.4,0,0.8,0.1,0.8,1.1l-0.1,5.1h2.6v-5.6c0,0,0-0.1,0-0.1C306.3,265.9,305.4,264.8,303.9,264.8z"/>
		<path fill="#8973B4" d="M312.9,264.9c-0.8,0-1.7,0.3-2.4,0.9v-0.7h-2.5l-0.1,8.3h2.5l0.1-5.5c0.8-0.7,1.4-0.8,1.5-0.8
			c0.4,0,0.7,0.1,0.7,1.1l-0.1,5.1h2.5l0.2-5.6v-0.1C315.4,266,314.5,264.9,312.9,264.9z"/>
		<path fill="#8973B4" d="M320.3,264.8c-2.3,0-4.1,1.9-4.1,4.5c0,2.7,1.5,4.4,4,4.4c1.1,0,2.1-0.4,3.3-1.3l0.3-0.2l-1.1-1.7
			l-0.3,0.2c-0.8,0.6-1.3,0.8-1.9,0.8c-0.9,0-1.5-0.6-1.6-1.8h5V269C323.9,266.3,322.6,264.8,320.3,264.8z M320.2,266.8
			c0.4,0,0.9,0.1,1.1,1h-2.4C319.1,267.2,319.6,266.8,320.2,266.8z"/>
		<polygon fill="#8973B4" points="329.3,273.4 332.1,273.4 332.1,268.9 336.1,268.9 336.1,266.4 332.2,266.4 332.2,264.5 
			336.2,264.5 336.3,262 329.5,262 		"/>
		<path fill="#8973B4" d="M340.4,264.8c-2.3,0-4.1,2-4.1,4.5c0,2.7,1.5,4.4,4,4.4c1.2,0,2.3-0.4,3.3-1.3l0.3-0.2l-1.1-1.7l-0.3,0.3
			c-0.6,0.5-1.3,0.8-1.9,0.8c-0.9,0-1.5-0.6-1.6-1.8h5V269C344,266.3,342.7,264.8,340.4,264.8z M339.1,267.8c0.2-0.7,0.7-1,1.3-1
			c0.6,0,0.9,0.4,1,1H339.1z"/>
		<path fill="#8973B4" d="M349.8,265.3c-0.5-0.3-1.1-0.5-1.7-0.5c-2,0-3.7,2-3.7,4.5c0,2.5,1.4,4.2,3.5,4.2c0.8,0,1.4-0.2,1.9-0.6
			v0.4h2.5l0.2-12.2h-2.7L349.8,265.3z M348.7,267c0.3,0.1,0.9,0.2,1.2,0.7v2.8c-0.4,0.5-0.9,0.8-1.3,0.8c-0.9,0-1.4-0.8-1.4-2
			C347.1,268,347.8,267,348.7,267z"/>
		<path fill="#8973B4" d="M358.7,265.3c-0.5-0.3-1.1-0.5-1.7-0.5c-2,0-3.7,2-3.7,4.5c0,2.5,1.4,4.2,3.5,4.2c0.8,0,1.4-0.2,1.9-0.6
			v0.4h2.5l0.2-12.2h-2.7L358.7,265.3z M357.6,267c0.3,0.1,0.9,0.2,1.2,0.7v2.8c-0.4,0.5-0.9,0.8-1.3,0.8c-0.9,0-1.4-0.8-1.4-2
			C356,268,356.7,267,357.6,267z"/>
		<path fill="#8973B4" d="M366.3,264.8c-2.3,0-4.1,1.9-4.1,4.5c0,2.7,1.5,4.4,4,4.4c1.2,0,2.3-0.4,3.3-1.3l0.3-0.2l-1.1-1.7
			l-0.3,0.3c-0.6,0.5-1.3,0.8-1.9,0.8c-0.9,0-1.5-0.6-1.7-1.8h5.1V269C369.9,266.3,368.6,264.8,366.3,264.8z M365.1,267.8
			c0.2-0.7,0.7-1,1.3-1c0.5,0,0.8,0.4,1,1H365.1z"/>
		<path fill="#8973B4" d="M376,264.9h-0.4c-0.1,0-0.1,0-0.2,0c-0.1,0-0.2-0.1-0.4-0.1c-0.7,0-1.3,0.4-1.7,0.8v-0.7h-2.5l-0.1,8.4
			h2.6l0.1-4.9c0.5-0.9,1-1.2,1.6-1.2h0.7L376,264.9z"/>
		<path fill="#8973B4" d="M379.2,267c0.4,0,0.8,0.2,1.5,0.6l0.3,0.2l1.2-1.8l-0.3-0.2c-0.9-0.6-1.8-0.9-2.8-0.9
			c-1.9,0-3.2,1.1-3.2,2.8c0,1.1,0.7,2,2,2.6l0.4,0.1c0.9,0.3,1,0.4,1,0.7c0,0.6-1,0.7-2.3,0l-0.3-0.2l-1,1.9l0.3,0.2
			c0.7,0.5,1.6,0.8,2.7,0.8c2,0,3.3-1.1,3.3-2.8c0-1-0.6-1.9-1.6-2.3c-0.3-0.1-0.6-0.2-0.8-0.3c-0.8-0.3-1.1-0.4-1.1-0.7
			C378.4,267.2,378.7,267,379.2,267z"/>
		<path fill="#8973B4" d="M386.8,264.8c-2.6,0-4.3,1.8-4.3,4.5c0,2.6,1.6,4.3,4.2,4.3c2.6,0,4.3-1.8,4.3-4.5
			C391,266.5,389.3,264.8,386.8,264.8z M388.3,269.1c0,1.5-0.7,2.4-1.6,2.4c-0.9,0-1.5-0.9-1.5-2.3c0-0.8,0.1-1.4,0.5-1.8
			c0.3-0.3,0.7-0.5,1.1-0.5C387.7,266.9,388.3,267.8,388.3,269.1z"/>
		<path fill="#8774B5" d="M396.9,264.8c-0.8,0-1.6,0.3-2.3,0.7V265h-2.8l-0.1,8.6h2.9l0.1-5.6c0.5-0.5,1-0.7,1.4-0.7
			c0.3,0,0.6,0,0.6,1l-0.1,5.2h2.8l0.1-5.7v-0.1C399.5,265.2,397.9,264.8,396.9,264.8z"/>
	</g>
	<polygon fill="#F2706D" points="200.2,257.1 0,257.1 0,128 200.2,128 	"/>
	<polygon fill="#8A73B4" points="399.1,257.1 199.4,257.1 199.4,128 399.1,128 	"/>
	<path fill="#FFFFFF" d="M69.9,183.7l-2.9,7c-2.8-1.9-7.1-2.8-12.9-2.8c-5.5,0-9.9,2.3-13.2,6.8s-5,10.3-5,17.4
		c0,6.8,1.7,12.3,5.1,16.5c3.4,4.2,7.8,6.3,13.2,6.3c5.9,0,10.4-2,13.5-6l4.7,6.2c-5,4.7-11.3,7.1-19.1,7.1
		c-8.2,0-14.6-2.8-19.3-8.4c-4.7-5.6-7-13.1-7-22.3c0-8.9,2.5-16.3,7.5-22.2s11.5-8.9,19.4-8.9C60.7,180.5,66,181.6,69.9,183.7
		L69.9,183.7z"/>
	<path fill="#FFFFFF" d="M105.2,241.2v-27.3c0-3.3-0.8-5.8-2.5-7.7s-4.1-2.8-7.1-2.8c-2,0-3.9,0.6-5.9,1.6c-2,1.1-3.5,2.4-4.5,3.8
		v32.4h-8.1v-61.6h8.1v22.8c1.1-1.6,2.8-2.9,5.2-4c2.4-1.1,4.9-1.6,7.4-1.6c4.8,0,8.6,1.5,11.4,4.6c2.7,3,4.1,7.2,4.1,12.4v27.4
		H105.2L105.2,241.2z"/>
	<path fill="#FFFFFF" d="M124.4,241.2v-37.1h-6.3v-6.5h14.3v43.6L124.4,241.2L124.4,241.2z M128.9,181.1c1.4,0,2.6,0.5,3.6,1.4
		s1.5,2,1.5,3.4c0,1.3-0.5,2.5-1.5,3.4s-2.2,1.4-3.6,1.4c-1.4,0-2.5-0.5-3.5-1.4s-1.5-2.1-1.5-3.4c0-1.4,0.5-2.5,1.4-3.4
		C126.3,181.5,127.5,181.1,128.9,181.1L128.9,181.1z"/>
	<path fill="#FFFFFF" d="M141.6,228.8v-49.2h8.1v47.9c0,2.3,0.7,4.2,2.1,5.5c1.4,1.3,3.3,2,5.5,2v6.9
		C146.8,242,141.6,237.6,141.6,228.8L141.6,228.8z"/>
	<path fill="#FFFFFF" d="M199.3,241.2v-61.6h-8.1V200c-2.4-2.1-6-3.2-10.7-3.2c-5.7,0-10.5,2.3-14.6,7c-4.1,4.6-6.1,10.2-6.1,16.8
		c0,6.5,1.8,11.7,5.3,15.6c3.6,3.9,8.2,5.9,13.9,5.9c5.4,0,9.5-1.4,12.3-4v3.2h8V241.2z M191.2,231.9c-0.5,0.8-1.6,1.7-3.4,2.4
		c-1.8,0.8-3.3,1.2-4.6,1.2c-10,0-15-5.2-15-15.7c0-4.8,1.3-8.7,4-11.8s6.2-4.6,10.6-4.6c3.6,0,6.3,1.5,8.4,4.4V231.9L191.2,231.9z"
		/>
	<path fill="#FFFFFF" d="M234.6,241.2v-27.3c0-3.3-0.8-5.8-2.5-7.7s-4-2.8-7.1-2.8c-2,0-3.9,0.6-5.9,1.6c-2,1.1-3.5,2.4-4.6,3.8
		v32.4h-8.1v-61.6h8.1v22.8c1.1-1.6,2.8-2.9,5.2-4s4.9-1.6,7.4-1.6c4.8,0,8.6,1.5,11.4,4.6c2.7,3,4.1,7.2,4.1,12.4v27.4H234.6
		L234.6,241.2z"/>
	<path fill="#FFFFFF" d="M288.9,215.4c0-5.6-1.8-10-5.4-13.4c-3.7-3.5-8.8-5.3-15.3-5.3c-5.6,0-10.4,1.9-14.5,5.8
		c-4.6,4.3-6.9,10.1-6.9,17.3c0,6.9,2.2,12.4,6.7,16.5c4,3.7,8.9,5.6,14.6,5.6c4,0,7.6-0.6,10.8-1.7c2.6-0.9,4.5-1.9,5.8-3.1
		l-3.4-5.6c-3.1,2.6-7,3.9-11.6,3.9c-4.1,0-7.4-1.2-10-3.6c-2.9-2.8-4.4-6.7-4.4-11.8h33C288.7,218.7,288.9,217.1,288.9,215.4
		L288.9,215.4z M277.8,206.7c2.1,2.1,3.1,4.7,3.1,7.8h-25.2c0.3-3.1,1.6-5.8,4-7.9c2.4-2.2,5.4-3.3,9.1-3.3
		C272.5,203.3,275.5,204.5,277.8,206.7L277.8,206.7z"/>
	<path fill="#FFFFFF" d="M293.6,228.8v-49.2h8.1v47.9c0,2.3,0.7,4.2,2.1,5.5s3.3,2,5.5,2v6.9C298.9,242,293.6,237.6,293.6,228.8
		L293.6,228.8z"/>
	<path fill="#FFFFFF" d="M326.6,241c2.2,0.7,4.3,1,6.2,1c6.9,0,12.1-2.1,15.8-6.3c3.6-4.2,5.5-9.6,5.5-16.2c0-7.4-1.8-13.1-5.4-16.9
		c-3.6-3.9-8.6-5.8-15.1-5.8c-4.3,0-8,1.5-11.1,4.4v-3.6h-8.1V251h8.1v-12.3C323,239.6,324.4,240.4,326.6,241L326.6,241z
		 M326.3,204.5c1.7-0.7,3-1.1,4.2-1.1c5.3,0,9.1,1.3,11.5,3.8s3.6,6.6,3.6,12.1c0,10.8-5,16.2-15.1,16.2c-1.6,0-3.2-0.3-4.8-1
		c-1.6-0.7-2.7-1.3-3.2-2.1V207C323.3,206.1,324.7,205.2,326.3,204.5L326.3,204.5z"/>
	<path fill="#FFFFFF" d="M361.7,229.4h1.1c1.4,0,2.2,0.4,2.2,1.4c0,0.9-0.7,1.3-2.1,1.3h-1.2V229.4L361.7,229.4z M359.3,227.9v9.4
		h2.4v-3.9h1.2l1.9,3.9h2.7l-2.2-4.2c1.4-0.3,2.2-1.3,2.2-2.5c0-1.8-1.4-2.7-4.2-2.7H359.3L359.3,227.9z M363,224.3
		c-3.2,0-6,1.5-7.5,4.1c-0.9,1.4-1.3,2.9-1.3,4.4c0,2.2,0.9,4.3,2.6,5.9c1.7,1.7,3.9,2.6,6.3,2.6c2.3,0,4.6-0.9,6.3-2.5
		c1.7-1.6,2.7-3.7,2.7-6s-0.9-4.4-2.6-6C367.7,225.2,365.4,224.3,363,224.3L363,224.3z M363,225.7c2.1,0,3.9,0.7,5.3,2.1
		c1.4,1.4,2.1,3.1,2.1,5.1c0,1.8-0.8,3.6-2.2,4.9c-1.5,1.3-3.3,2.1-5.3,2.1s-3.8-0.8-5.3-2.2c-1.4-1.3-2.1-3.1-2.1-5
		s0.8-3.7,2.3-5.1C359.2,226.4,361,225.7,363,225.7L363,225.7z"/>
	<path fill="#FFFFFF" d="M98.1,148l8.4,5.2c0,0,6.7,4,11.3,6.5c4.4,2.5,5.8,0.8,9.2-0.5c2.6-1,5.8,0.3,5.8,0.3s1.9,0.8,2.4,1.4
		c-2.9,0.2-3.7,0.9-4.9,3.4c-1.3,2.7-0.9,3.1-1.8,5.9c-1.5,4.6-4.4,6.5-6.9,7.5c-2.8,1.1-6.5,1.1-9.5,0.5c-2.8-0.5-8-2.3-10.9-2.5
		c-3.1-0.1-7.5,1.8-7.5,1.8s0.6-2.1,1.5-4.1S95,169,95,169s0.4-0.3,2.8,0.1c1.8,0.3,3.8,1,5.6,1.5c5.3,1.5,11-2.6,11-2.6
		s-4.8,0.1-8.3-1.3c-4.8-2-6.7-7.4-6.7-7.4S97,152.8,98.1,148"/>
	<path fill="#FFFFFF" d="M112.5,139.5c-1.7,5.8-1.9,8.5-1.5,10.2c0.6,2.8,1.7,4.2,3,5.3s2.1,1.8,4,2.5s1.5,0.8,2.8,1
		c-0.7-1.8-1.9-2.8-1.6-5.5c0.2-1.9,0.4-4-0.8-6.3C116.9,142.8,113.6,142.4,112.5,139.5"/>
</g>
</svg>
